<svg width="102" height="48" viewBox="0 0 102 48" fill="none" xmlns="http://www.w3.org/2000/svg">
<path d="M0 0H97C99.7614 0 102 2.23858 102 5V43C102 45.7614 99.7614 48 97 48H0V0Z" fill="#737373"/>
<path d="M61.7438 21.7598C61.1686 20.0342 59.8605 18.9395 57.9401 18.9395C55.5651 18.9395 53.6818 20.8135 53.6725 24.2832C53.6818 27.7437 55.5651 29.6177 58.0514 29.627C60.3151 29.6177 61.883 28.1147 61.9108 25.7305H58.404V24.2646H63.5436V25.7119C63.5436 29.0425 61.2521 31.1855 58.0514 31.1855C54.4611 31.1855 52.049 28.5322 52.0583 24.2832C52.049 20.0342 54.4889 17.3809 57.9401 17.3809C60.779 17.3809 62.9684 19.1621 63.4694 21.7598H61.7438ZM65.6544 31V20.9248H67.1945V22.4648H67.3058C67.6676 21.4443 68.7159 20.7671 69.9034 20.7578C70.1446 20.7671 70.5529 20.7764 70.7384 20.7949V22.4092C70.6178 22.3813 70.191 22.2979 69.7736 22.2979C68.3263 22.2979 67.2501 23.2998 67.2501 24.6543V31H65.6544ZM72.107 31V20.9248H73.7027V31H72.107ZM71.7916 18.1973C71.7823 17.6035 72.2925 17.1304 72.9048 17.1396C73.5171 17.1304 74.0274 17.6035 74.0367 18.1973C74.0274 18.7817 73.5171 19.2549 72.9048 19.2549C72.2925 19.2549 71.7823 18.7817 71.7916 18.1973ZM79.8584 31.2041C77.3442 31.2134 75.5723 29.1909 75.5723 25.9902C75.5723 22.7988 77.3442 20.7949 79.877 20.7949C81.8345 20.7949 82.4468 21.9824 82.79 22.5205H82.9014V17.5664H84.5156V31H82.957V29.46H82.79C82.4375 30.0166 81.7788 31.2134 79.8584 31.2041ZM77.1865 25.9531C77.1865 28.0962 78.1699 29.7754 80.0811 29.7754C81.9272 29.7754 82.9478 28.2168 82.957 25.9531C82.9478 23.7173 81.9551 22.2236 80.0811 22.2236C78.1421 22.2236 77.1865 23.8472 77.1865 25.9531Z" fill="white"/>
<g clip-path="url(#clip0_45_1038)">
<path d="M24.875 33H22.25C21.6533 33 21.081 32.7629 20.659 32.341C20.2371 31.919 20 31.3467 20 30.75V28.125H24.875V33Z" fill="white"/>
<path d="M35.75 33H33.125V28.125H38V30.75C38 31.3467 37.7629 31.919 37.341 32.341C36.919 32.7629 36.3467 33 35.75 33Z" fill="white"/>
<path d="M24.875 21.5625H20V26.4375H24.875V21.5625Z" fill="white"/>
<path d="M38 21.5625H33.125V26.4375H38V21.5625Z" fill="white"/>
<path d="M24.875 19.875H20V17.25C20 16.6533 20.2371 16.081 20.659 15.659C21.081 15.2371 21.6533 15 22.25 15H24.875V19.875Z" fill="white"/>
<path d="M31.4375 28.125H26.5625V33H31.4375V28.125Z" fill="white"/>
<path d="M31.4375 21.5625H26.5625V26.4375H31.4375V21.5625Z" fill="white"/>
<path d="M31.4375 15H26.5625V19.875H31.4375V15Z" fill="white"/>
<path d="M38 19.875H33.125V15H35.75C36.3467 15 36.919 15.2371 37.341 15.659C37.7629 16.081 38 16.6533 38 17.25V19.875Z" fill="white"/>
</g>
<defs>
<clipPath id="clip0_45_1038">
<rect width="18" height="18" fill="white" transform="translate(20 15)"/>
</clipPath>
</defs>
</svg>
