<svg width="28" height="21" viewBox="0 0 28 21" fill="none" xmlns="http://www.w3.org/2000/svg">
<path d="M11.7022 14.2888C11.9419 14.5026 12.2266 14.6722 12.5399 14.7879C12.8532 14.9037 13.189 14.9632 13.5281 14.9632C13.8672 14.9632 14.203 14.9037 14.5163 14.7879C14.8296 14.6722 15.1142 14.5026 15.354 14.2888L18.1169 11.8263C18.265 11.6803 18.3445 11.4891 18.3388 11.2923C18.3331 11.0955 18.2428 10.9082 18.0864 10.7691C17.9301 10.63 17.7197 10.5499 17.4989 10.5453C17.2781 10.5406 17.0637 10.6119 16.9002 10.7442L14.3825 12.9889L14.3885 1.1579C14.3885 0.9545 14.2979 0.759435 14.1365 0.615612C13.9751 0.47179 13.7563 0.390991 13.5281 0.390991C13.2999 0.390991 13.081 0.47179 12.9197 0.615612C12.7583 0.759435 12.6676 0.9545 12.6676 1.1579L12.6599 12.9744L10.156 10.7442C9.99452 10.6004 9.77558 10.5197 9.54733 10.5197C9.31908 10.5198 9.10021 10.6007 8.93887 10.7446C8.77753 10.8885 8.68693 11.0836 8.68701 11.2871C8.68709 11.4905 8.77784 11.6856 8.9393 11.8294L11.7022 14.2888Z" fill="black"/>
<path d="M25.8997 10.1058C25.601 10.1058 25.3146 10.2465 25.1034 10.4971C24.8923 10.7476 24.7736 11.0873 24.7736 11.4416V16.7847C24.7736 17.139 24.655 17.4788 24.4438 17.7293C24.2326 17.9798 23.9462 18.1205 23.6476 18.1205H3.37822C3.07957 18.1205 2.79315 17.9798 2.58197 17.7293C2.37079 17.4788 2.25215 17.139 2.25215 16.7847V11.4416C2.25215 11.0873 2.13351 10.7476 1.92233 10.4971C1.71115 10.2465 1.42473 10.1058 1.12607 10.1058C0.82742 10.1058 0.540999 10.2465 0.329819 10.4971C0.11864 10.7476 0 11.0873 0 11.4416L0 16.7847C0 17.8476 0.355919 18.8669 0.989458 19.6184C1.623 20.3699 2.48226 20.7921 3.37822 20.7921H23.6476C24.5435 20.7921 25.4028 20.3699 26.0363 19.6184C26.6699 18.8669 27.0258 17.8476 27.0258 16.7847V11.4416C27.0258 11.0873 26.9071 10.7476 26.696 10.4971C26.4848 10.2465 26.1984 10.1058 25.8997 10.1058Z" fill="black"/>
</svg>
