<svg width="27" height="22" viewBox="0 0 27 22" fill="none" xmlns="http://www.w3.org/2000/svg">
<path d="M11.7317 14.5174C11.9585 14.7312 12.2278 14.9008 12.5243 15.0166C12.8207 15.1323 13.1385 15.1918 13.4594 15.1918C13.7803 15.1918 14.098 15.1323 14.3944 15.0166C14.6909 14.9008 14.9602 14.7312 15.187 14.5174L17.8014 12.0549C17.9415 11.9089 18.0167 11.7177 18.0113 11.5209C18.006 11.3241 17.9205 11.1368 17.7725 10.9977C17.6246 10.8587 17.4255 10.7785 17.2166 10.7739C17.0077 10.7692 16.8048 10.8405 16.6501 10.9728L14.2678 13.2175L14.2735 1.3865C14.2735 1.18311 14.1878 0.988042 14.0351 0.844219C13.8824 0.700397 13.6753 0.619598 13.4594 0.619598C13.2434 0.619598 13.0363 0.700397 12.8837 0.844219C12.731 0.988042 12.6452 1.18311 12.6452 1.3865L12.6379 13.203L10.2686 10.9728C10.1158 10.829 9.90869 10.7483 9.69271 10.7483C9.47674 10.7484 9.26964 10.8293 9.11697 10.9732C8.96431 11.1171 8.87859 11.3122 8.87866 11.5157C8.87874 11.7191 8.96461 11.9142 9.11738 12.058L11.7317 14.5174Z" fill="white"/>
<path d="M25.1657 10.3344C24.8831 10.3344 24.6121 10.4751 24.4122 10.7257C24.2124 10.9762 24.1002 11.3159 24.1002 11.6702V17.0133C24.1002 17.3676 23.9879 17.7074 23.7881 17.9579C23.5883 18.2084 23.3172 18.3491 23.0347 18.3491H3.85547C3.57288 18.3491 3.30186 18.2084 3.10204 17.9579C2.90222 17.7074 2.78996 17.3676 2.78996 17.0133V11.6702C2.78996 11.3159 2.6777 10.9762 2.47788 10.7257C2.27805 10.4751 2.00704 10.3344 1.72445 10.3344C1.44186 10.3344 1.17084 10.4751 0.971016 10.7257C0.771194 10.9762 0.658936 11.3159 0.658936 11.6702L0.658936 17.0133C0.658936 18.0762 0.995712 19.0955 1.59518 19.847C2.19464 20.5985 3.00769 21.0207 3.85547 21.0207H23.0347C23.8824 21.0207 24.6955 20.5985 25.2949 19.847C25.8944 19.0955 26.2312 18.0762 26.2312 17.0133V11.6702C26.2312 11.3159 26.1189 10.9762 25.9191 10.7257C25.7193 10.4751 25.4483 10.3344 25.1657 10.3344Z" fill="white"/>
</svg>
