<svg width="29" height="29" viewBox="0 0 29 29" fill="none" xmlns="http://www.w3.org/2000/svg">
<path d="M8.45833 13.2917H13.2917V8.45833C13.2917 8.13786 13.419 7.83052 13.6456 7.60391C13.8722 7.37731 14.1795 7.25 14.5 7.25C14.8205 7.25 15.1278 7.37731 15.3544 7.60391C15.581 7.83052 15.7083 8.13786 15.7083 8.45833V13.2917H20.5417C20.8621 13.2917 21.1695 13.419 21.3961 13.6456C21.6227 13.8722 21.75 14.1795 21.75 14.5C21.75 14.8205 21.6227 15.1278 21.3961 15.3544C21.1695 15.581 20.8621 15.7083 20.5417 15.7083H15.7083V20.5417C15.7083 20.8621 15.581 21.1695 15.3544 21.3961C15.1278 21.6227 14.8205 21.75 14.5 21.75C14.1795 21.75 13.8722 21.6227 13.6456 21.3961C13.419 21.1695 13.2917 20.8621 13.2917 20.5417V15.7083H8.45833C8.13786 15.7083 7.83052 15.581 7.60391 15.3544C7.37731 15.1278 7.25 14.8205 7.25 14.5C7.25 14.1795 7.37731 13.8722 7.60391 13.6456C7.83052 13.419 8.13786 13.2917 8.45833 13.2917Z" fill="white"/>
</svg>
