<svg width="102" height="48" viewBox="0 0 102 48" fill="none" xmlns="http://www.w3.org/2000/svg">
<path d="M0 5C0 2.23858 2.23858 0 5 0H102V48H5C2.23858 48 0 45.7614 0 43V5Z" fill="#E3E3E3"/>
<path d="M57.903 31V17.5664H59.5729V29.5156H65.8073V31H57.903ZM67.6398 31V20.9248H69.2355V31H67.6398ZM67.3243 18.1973C67.3151 17.6035 67.8253 17.1304 68.4376 17.1396C69.0499 17.1304 69.5602 17.6035 69.5695 18.1973C69.5602 18.7817 69.0499 19.2549 68.4376 19.2549C67.8253 19.2549 67.3151 18.7817 67.3243 18.1973ZM77.191 23.541C76.9683 22.7061 76.3282 22.1587 75.15 22.1494C73.9068 22.1587 73.0254 22.8267 73.0162 23.6709C73.0254 24.3389 73.5635 24.7935 74.7418 25.0811L76.2447 25.4521C78.0445 25.8789 78.9258 26.7788 78.9351 28.1797C78.9258 29.9238 77.5064 31.2134 74.983 31.2041C72.7193 31.2134 71.3741 30.2021 71.105 28.3652H72.775C72.9605 29.3486 73.6749 29.8218 74.9459 29.8125C76.3838 29.8218 77.2837 29.2188 77.2837 28.2725C77.2837 27.5581 76.7735 27.0942 75.6324 26.8252L74.1109 26.4727C72.3575 26.0645 71.4205 25.1089 71.4205 23.7637C71.4205 22.0381 72.9327 20.7949 75.15 20.7949C77.2374 20.7949 78.5455 21.9082 78.7496 23.541H77.191ZM85.2207 20.9248V22.2607H83.1055V28.1055C83.0962 29.395 83.7456 29.6084 84.4229 29.6084C84.7104 29.6084 85.1372 29.5806 85.3691 29.5713V31.0557C85.1187 31.0928 84.729 31.1299 84.2559 31.1299C82.9106 31.1299 81.5005 30.2949 81.4912 28.5137V22.2607H79.9697V20.9248H81.4912V18.5127H83.1055V20.9248H85.2207Z" fill="black"/>
<g clip-path="url(#clip0_45_1036)">
<path d="M26.4167 18.5H41.0833C41.3264 18.5 41.5596 18.4034 41.7315 18.2315C41.9034 18.0596 42 17.8265 42 17.5833C42 17.3402 41.9034 17.1071 41.7315 16.9352C41.5596 16.7632 41.3264 16.6667 41.0833 16.6667H26.4167C26.1736 16.6667 25.9404 16.7632 25.7685 16.9352C25.5966 17.1071 25.5 17.3402 25.5 17.5833C25.5 17.8265 25.5966 18.0596 25.7685 18.2315C25.9404 18.4034 26.1736 18.5 26.4167 18.5Z" fill="black"/>
<path d="M41.0833 23.0833H26.4167C26.1736 23.0833 25.9404 23.1799 25.7685 23.3518C25.5966 23.5237 25.5 23.7569 25.5 24C25.5 24.2431 25.5966 24.4763 25.7685 24.6482C25.9404 24.8201 26.1736 24.9167 26.4167 24.9167H41.0833C41.3264 24.9167 41.5596 24.8201 41.7315 24.6482C41.9034 24.4763 42 24.2431 42 24C42 23.7569 41.9034 23.5237 41.7315 23.3518C41.5596 23.1799 41.3264 23.0833 41.0833 23.0833Z" fill="black"/>
<path d="M41.0833 29.5H26.4167C26.1736 29.5 25.9404 29.5966 25.7685 29.7685C25.5966 29.9404 25.5 30.1736 25.5 30.4167C25.5 30.6598 25.5966 30.8929 25.7685 31.0648C25.9404 31.2368 26.1736 31.3333 26.4167 31.3333H41.0833C41.3264 31.3333 41.5596 31.2368 41.7315 31.0648C41.9034 30.8929 42 30.6598 42 30.4167C42 30.1736 41.9034 29.9404 41.7315 29.7685C41.5596 29.5966 41.3264 29.5 41.0833 29.5Z" fill="black"/>
<path d="M21.8333 19.4167C22.8459 19.4167 23.6667 18.5959 23.6667 17.5833C23.6667 16.5708 22.8459 15.75 21.8333 15.75C20.8208 15.75 20 16.5708 20 17.5833C20 18.5959 20.8208 19.4167 21.8333 19.4167Z" fill="black"/>
<path d="M21.8333 25.8333C22.8459 25.8333 23.6667 25.0125 23.6667 24C23.6667 22.9875 22.8459 22.1667 21.8333 22.1667C20.8208 22.1667 20 22.9875 20 24C20 25.0125 20.8208 25.8333 21.8333 25.8333Z" fill="black"/>
<path d="M21.8333 32.25C22.8459 32.25 23.6667 31.4292 23.6667 30.4167C23.6667 29.4041 22.8459 28.5833 21.8333 28.5833C20.8208 28.5833 20 29.4041 20 30.4167C20 31.4292 20.8208 32.25 21.8333 32.25Z" fill="black"/>
</g>
<defs>
<clipPath id="clip0_45_1036">
<rect width="22" height="22" fill="white" transform="translate(20 13)"/>
</clipPath>
</defs>
</svg>
